<svg width="366" height="366" viewBox="0 0 366 366" fill="none" xmlns="http://www.w3.org/2000/svg">
<g clip-path="url(#clip0_714_28)">
<path d="M0 130.133C0 84.5824 0 61.8069 8.8648 44.4088C16.6625 29.1049 29.1049 16.6625 44.4088 8.8648C61.8069 0 84.5824 0 130.133 0H235.867C281.418 0 304.193 0 321.591 8.8648C336.895 16.6625 349.337 29.1049 357.135 44.4088C366 61.8069 366 84.5824 366 130.133V235.867C366 281.418 366 304.193 357.135 321.591C349.337 336.895 336.895 349.337 321.591 357.135C304.193 366 281.418 366 235.867 366H130.133C84.5824 366 61.8069 366 44.4088 357.135C29.1049 349.337 16.6625 336.895 8.8648 321.591C0 304.193 0 281.418 0 235.867V130.133Z" fill="url(#paint0_linear_714_28)"/>
<path fill-rule="evenodd" clip-rule="evenodd" d="M153.944 298H211.055C251.161 298 271.214 298 285.619 288.562C291.853 284.476 297.208 279.226 301.375 273.112C311 258.988 311 239.325 311 200C311 160.676 311 141.013 301.375 126.888C297.208 120.773 291.853 115.523 285.619 111.438C276.362 105.373 264.775 103.206 247.033 102.431C238.566 102.431 231.277 96.1404 229.617 88C227.125 75.7894 216.191 67 203.493 67H161.507C148.808 67 137.874 75.7894 135.383 88C133.723 96.1404 126.434 102.431 117.967 102.431C100.226 103.206 88.6378 105.373 79.3818 111.438C73.1459 115.523 67.7916 120.773 63.6249 126.888C54 141.013 54 160.676 54 200C54 239.325 54 258.988 63.6249 273.112C67.7916 279.226 73.1459 284.476 79.3818 288.562C93.7867 298 113.839 298 153.944 298ZM182.5 147.5C152.93 147.5 128.958 171.005 128.958 200C128.958 228.995 152.93 252.499 182.5 252.499C212.07 252.499 236.042 228.995 236.042 200C236.042 171.005 212.07 147.5 182.5 147.5ZM182.5 168.5C164.758 168.5 150.375 182.603 150.375 200C150.375 217.396 164.758 231.5 182.5 231.5C200.242 231.5 214.625 217.396 214.625 200C214.625 182.603 200.242 168.5 182.5 168.5ZM243.18 158C243.18 152.201 247.975 147.5 253.889 147.5H268.167C274.081 147.5 278.875 152.201 278.875 158C278.875 163.799 274.081 168.5 268.167 168.5H253.889C247.975 168.5 243.18 163.799 243.18 158Z" fill="black" fill-opacity="0.7"/>
</g>
<defs>
<linearGradient id="paint0_linear_714_28" x1="183" y1="0" x2="183" y2="366" gradientUnits="userSpaceOnUse">
<stop stop-color="#EFEFEF"/>
<stop offset="1" stop-color="#929296"/>
</linearGradient>
<clipPath id="clip0_714_28">
<rect width="366" height="366" fill="white"/>
</clipPath>
</defs>
</svg>
