<svg width="366" height="366" viewBox="0 0 366 366" fill="none" xmlns="http://www.w3.org/2000/svg">
<g clip-path="url(#clip0_714_114)">
<path d="M0 130.133C0 84.5824 0 61.8069 8.8648 44.4088C16.6625 29.1049 29.1049 16.6625 44.4088 8.8648C61.8069 0 84.5824 0 130.133 0H235.867C281.418 0 304.193 0 321.591 8.8648C336.895 16.6625 349.337 29.1049 357.135 44.4088C366 61.8069 366 84.5824 366 130.133V235.867C366 281.418 366 304.193 357.135 321.591C349.337 336.895 336.895 349.337 321.591 357.135C304.193 366 281.418 366 235.867 366H130.133C84.5824 366 61.8069 366 44.4088 357.135C29.1049 349.337 16.6625 336.895 8.8648 321.591C0 304.193 0 281.418 0 235.867V130.133Z" fill="url(#paint0_linear_714_114)"/>
<circle cx="182.5" cy="182.5" r="121.5" fill="white"/>
<circle opacity="0.64" cx="183.179" cy="134.358" r="32.379" fill="#6D90FF"/>
<path d="M182.328 182.074C145.526 182.074 127.182 210.135 121.334 227.411C120.458 230 120.885 232.831 122.545 235.002C131.012 246.069 151.412 263.021 182.328 263.021C212.961 263.021 234.395 246.377 243.748 235.306C245.714 232.979 246.208 229.794 245.1 226.956C238.341 209.647 218.808 182.074 182.328 182.074Z" fill="#1E4BC6"/>
</g>
<defs>
<linearGradient id="paint0_linear_714_114" x1="183" y1="0" x2="183" y2="366" gradientUnits="userSpaceOnUse">
<stop stop-color="#115BB5"/>
<stop offset="1" stop-color="#2E98E4"/>
</linearGradient>
<clipPath id="clip0_714_114">
<rect width="366" height="366" fill="white"/>
</clipPath>
</defs>
</svg>
