<svg width="366" height="366" viewBox="0 0 366 366" fill="none" xmlns="http://www.w3.org/2000/svg">
<g clip-path="url(#clip0_714_83)">
<path d="M0 130.133C0 84.5824 0 61.8069 8.8648 44.4088C16.6625 29.1049 29.1049 16.6625 44.4088 8.8648C61.8069 0 84.5824 0 130.133 0H235.867C281.418 0 304.193 0 321.591 8.8648C336.895 16.6625 349.337 29.1049 357.135 44.4088C366 61.8069 366 84.5824 366 130.133V235.867C366 281.418 366 304.193 357.135 321.591C349.337 336.895 336.895 349.337 321.591 357.135C304.193 366 281.418 366 235.867 366H130.133C84.5824 366 61.8069 366 44.4088 357.135C29.1049 349.337 16.6625 336.895 8.8648 321.591C0 304.193 0 281.418 0 235.867V130.133Z" fill="url(#paint0_linear_714_83)"/>
<path d="M248.5 215.75V106.583C248.5 97.8977 245.05 89.5676 238.908 83.4257C232.766 77.2839 224.436 73.8335 215.75 73.8335H106.583C97.8975 73.8335 89.5674 77.2839 83.4256 83.4257C77.2838 89.5676 73.8333 97.8977 73.8333 106.583V215.75C73.8333 224.436 77.2838 232.766 83.4256 238.908C89.5674 245.05 97.8975 248.5 106.583 248.5H215.75C224.436 248.5 232.766 245.05 238.908 238.908C245.05 232.766 248.5 224.436 248.5 215.75ZM95.6667 106.583C95.6667 103.688 96.8168 100.912 98.8641 98.8642C100.911 96.817 103.688 95.6668 106.583 95.6668H215.75C218.645 95.6668 221.422 96.817 223.469 98.8642C225.517 100.912 226.667 103.688 226.667 106.583V154.18L214.877 142.281C209.637 137.04 202.529 134.095 195.118 134.093C187.711 134.118 180.612 137.06 175.358 142.281L165.424 152.215L156.582 143.373C150.599 137.486 142.541 134.186 134.148 134.186C125.754 134.186 117.697 137.486 111.714 143.373L95.6667 159.529V106.583ZM96.9767 220.663C96.1348 219.161 95.6844 217.472 95.6667 215.75V190.314L127.107 158.874C128.03 157.947 129.127 157.211 130.335 156.709C131.544 156.206 132.839 155.948 134.148 155.948C135.456 155.948 136.752 156.206 137.961 156.709C139.169 157.211 140.266 157.947 141.189 158.874L150.25 167.717L96.9767 220.663ZM190.86 157.783C191.399 157.191 192.057 156.719 192.79 156.399C193.524 156.08 194.317 155.919 195.118 155.927C195.918 155.919 196.711 156.08 197.445 156.399C198.178 156.719 198.836 157.191 199.375 157.783L226.667 184.965V215.75C226.667 218.645 225.517 221.422 223.469 223.469C221.422 225.517 218.645 226.667 215.75 226.667H121.867L190.86 157.783ZM281.25 117.5C278.355 117.5 275.578 118.65 273.531 120.698C271.483 122.745 270.333 125.522 270.333 128.417V237.583C270.333 246.269 266.883 254.599 260.741 260.741C254.599 266.883 246.269 270.333 237.583 270.333H128.417C125.521 270.333 122.745 271.484 120.697 273.531C118.65 275.578 117.5 278.355 117.5 281.25C117.5 284.145 118.65 286.922 120.697 288.969C122.745 291.017 125.521 292.167 128.417 292.167H237.583C252.06 292.167 265.943 286.416 276.18 276.18C286.416 265.943 292.167 252.06 292.167 237.583V128.417C292.167 125.522 291.017 122.745 288.969 120.698C286.922 118.65 284.145 117.5 281.25 117.5Z" fill="white" fill-opacity="0.92"/>
</g>
<defs>
<linearGradient id="paint0_linear_714_83" x1="183" y1="0" x2="183" y2="366" gradientUnits="userSpaceOnUse">
<stop stop-color="#FF0174"/>
<stop offset="1" stop-color="#B10050"/>
</linearGradient>
<clipPath id="clip0_714_83">
<rect width="366" height="366" fill="white"/>
</clipPath>
</defs>
</svg>
