<svg width="366" height="366" viewBox="0 0 366 366" fill="none" xmlns="http://www.w3.org/2000/svg">
<g clip-path="url(#clip0_736_25)">
<path d="M0 130.133C0 84.5824 0 61.8069 8.8648 44.4088C16.6625 29.1049 29.1049 16.6625 44.4088 8.8648C61.8069 0 84.5824 0 130.133 0H235.867C281.418 0 304.193 0 321.591 8.8648C336.895 16.6625 349.338 29.1049 357.135 44.4088C366 61.8069 366 84.5824 366 130.133V235.867C366 281.418 366 304.193 357.135 321.591C349.338 336.895 336.895 349.338 321.591 357.135C304.193 366 281.418 366 235.867 366H130.133C84.5824 366 61.8069 366 44.4088 357.135C29.1049 349.338 16.6625 336.895 8.8648 321.591C0 304.193 0 281.418 0 235.867V130.133Z" fill="#5856D6"/>
<g clip-path="url(#clip1_736_25)">
<path d="M263.906 182.596C264.698 185.363 264.429 188.326 263.151 190.905C261.873 193.483 259.679 195.49 256.999 196.532C254.15 197.624 250.985 197.542 248.196 196.305C245.407 195.069 243.22 192.777 242.112 189.932V189.827C239.008 181.422 234.632 173.546 229.137 166.473C219.266 153.693 204.787 145.294 188.803 143.077C180.047 141.868 171.156 142.038 162.453 143.581H162.054C159.171 143.935 156.261 143.184 153.908 141.479C152.684 140.606 151.649 139.495 150.862 138.213C150.076 136.931 149.555 135.504 149.331 134.017L149.184 133.47C148.843 130.584 149.591 127.675 151.283 125.314C152.171 124.112 153.29 123.099 154.573 122.334C155.856 121.569 157.279 121.067 158.758 120.858H159.01C170.263 118.931 181.751 118.803 193.044 120.479C203.546 122.083 213.652 125.648 222.838 130.99C232.037 136.387 240.171 143.426 246.836 151.758C253.942 160.849 259.608 170.98 263.633 181.797C263.738 182.051 263.802 182.321 263.822 182.596H263.906ZM94.2158 284C89.3657 284 83.9907 283.726 78.1328 283.159C72.2749 282.591 66.564 282.003 61 281.393V261.318H95.3916C97.3646 261.523 99.347 261.032 100.998 259.931C101.996 259.115 102.648 257.951 102.824 256.673C102.983 255.615 103.074 254.547 103.097 253.478V249.442C103.197 247.66 102.766 245.89 101.858 244.355C101.276 243.68 100.537 243.159 99.705 242.84C98.8734 242.521 97.9758 242.413 97.0923 242.526H91.3604C89.7718 242.387 88.1843 242.803 86.8672 243.703C85.906 244.578 85.3193 245.79 85.2295 247.087H61.2729L64.0024 186.295H124.324V208.998H85.6284L84.9775 223.712C86.5461 222.566 88.3824 221.842 90.3106 221.61C92.3956 221.298 94.5011 221.143 96.6094 221.148H106.52C110.864 220.971 115.167 222.059 118.907 224.28C122.076 226.307 124.569 229.234 126.067 232.688C127.667 236.476 128.461 240.557 128.397 244.67V258.964C128.618 264.031 127.332 269.05 124.702 273.384C121.975 277.258 118.026 280.101 113.49 281.456C107.277 283.321 100.805 284.18 94.3208 284H94.2158ZM166.274 283.874C161.365 284.2 156.476 282.99 152.285 280.41C148.094 277.83 144.809 274.008 142.885 269.474C140.678 264.516 139.207 259.261 138.518 253.877C137.672 247.607 137.258 241.286 137.279 234.958C137.194 228.149 137.664 221.343 138.686 214.61C139.475 209.085 141.329 203.767 144.145 198.95C146.874 194.542 150.849 191.045 155.566 188.902C161.659 186.34 168.237 185.142 174.841 185.391C179.257 185.355 183.673 185.551 188.068 185.98C191.55 186.328 195.007 186.889 198.419 187.662C201.632 188.418 204.97 189.259 208.456 190.205V209.902C206.545 209.565 204.109 209.25 201.149 208.998C198.188 208.745 194.85 208.514 191.26 208.346C187.669 208.178 183.743 208.094 179.67 208.094C175.797 207.836 171.926 208.619 168.458 210.364C167.131 211.313 166.017 212.529 165.185 213.933C164.354 215.337 163.824 216.899 163.629 218.52C162.73 223.951 162.336 229.454 162.453 234.958C162.406 239.34 162.624 243.72 163.104 248.075C163.334 250.766 164.045 253.393 165.204 255.832C166.049 257.503 167.443 258.831 169.151 259.595C170.925 260.335 172.835 260.693 174.757 260.646C177.626 260.658 180.493 260.503 183.344 260.183C185.864 259.868 187.774 259.595 189.076 259.342V246.73H175.66V226.739C177.57 226.487 179.859 226.256 182.504 226.088C185.15 225.919 187.879 225.751 190.714 225.625C193.548 225.499 196.131 225.436 198.461 225.436C201.59 225.436 204.34 225.436 206.734 225.436C209.127 225.436 211.332 225.436 213.327 225.625V283.159H194.304L190.903 276.853C187.824 278.725 184.55 280.254 181.14 281.414C176.374 283.129 171.338 283.969 166.274 283.895V283.874ZM318.496 165.106C319.392 168.009 319.115 171.146 317.725 173.847C316.336 176.547 313.944 178.593 311.064 179.548C308.144 180.482 304.976 180.248 302.224 178.896C300.863 178.211 299.651 177.262 298.66 176.103C297.669 174.945 296.917 173.6 296.45 172.148V171.98C291.306 155.84 283.607 140.63 273.648 126.933C264.925 115.05 253.783 105.156 240.958 97.9031C228.092 90.8688 213.877 86.6622 199.259 85.5639C182.233 84.3659 165.125 85.8843 148.575 90.0624C147.116 90.4142 145.602 90.4728 144.121 90.2346C142.64 89.9965 141.22 89.4664 139.945 88.675C137.342 87.0717 135.467 84.5152 134.717 81.549C134.697 81.4378 134.697 81.3239 134.717 81.2126C134.076 78.3282 134.596 75.3069 136.166 72.8044C137.771 70.2236 140.316 68.3691 143.263 67.6333H143.599C162.686 62.8192 182.427 61.1367 202.052 62.6513C219.655 64.0354 236.753 69.1997 252.184 77.7928C267.615 86.386 281.015 98.2063 291.474 112.449C303.012 128.094 311.939 145.508 317.908 164.013C318.182 164.362 318.382 164.762 318.496 165.19V165.106Z" fill="#FFF9F9"/>
</g>
</g>
<defs>
<clipPath id="clip0_736_25">
<rect width="366" height="366" fill="white"/>
</clipPath>
<clipPath id="clip1_736_25">
<rect width="258" height="222" fill="white" transform="translate(61 62)"/>
</clipPath>
</defs>
</svg>
