<svg width="366" height="366" viewBox="0 0 366 366" fill="none" xmlns="http://www.w3.org/2000/svg">
<g clip-path="url(#clip0_714_80)">
<path d="M0 130.133C0 84.5824 0 61.8069 8.8648 44.4088C16.6625 29.1049 29.1049 16.6625 44.4088 8.8648C61.8069 0 84.5824 0 130.133 0H235.867C281.418 0 304.193 0 321.591 8.8648C336.895 16.6625 349.338 29.1049 357.135 44.4088C366 61.8069 366 84.5824 366 130.133V235.867C366 281.418 366 304.193 357.135 321.591C349.338 336.895 336.895 349.338 321.591 357.135C304.193 366 281.418 366 235.867 366H130.133C84.5824 366 61.8069 366 44.4088 357.135C29.1049 349.338 16.6625 336.895 8.8648 321.591C0 304.193 0 281.418 0 235.867V130.133Z" fill="#1DA1F2"/>
<path d="M255.6 182.5C255.6 222.472 223.096 254.875 183 254.875C142.904 254.875 110.4 222.472 110.4 182.5M255.6 182.5C255.6 142.528 223.096 110.125 183 110.125C142.904 110.125 110.4 142.528 110.4 182.5M255.6 182.5C255.6 235.795 212.261 279 158.8 279C105.339 279 62 235.795 62 182.5M110.4 182.5C110.4 129.205 153.739 86 207.2 86C260.661 86 304 129.205 304 182.5" stroke="white" stroke-width="26" stroke-linecap="round" stroke-linejoin="round"/>
</g>
<defs>
<clipPath id="clip0_714_80">
<rect width="366" height="366" fill="white"/>
</clipPath>
</defs>
</svg>
