<svg width="40" height="40" viewBox="0 0 40 40" fill="none" xmlns="http://www.w3.org/2000/svg">
<path d="M19.4449 21.4697C19.4449 21.4697 21.2423 21.8782 24.6738 20.4076C28.1054 18.937 28.1054 16.5676 28.1054 16.5676C26.3079 17.3029 24.7555 16.159 24.7555 16.159L26.2261 15.4238C29.0041 14.8518 32.1088 11.9923 32.6806 11.5021C33.2525 11.0119 34.0696 9.45948 32.4355 10.0314C30.8015 10.6034 28.9223 10.1948 28.9223 10.1948L29.9028 9.3778C34.7232 6.43648 35.5402 3.57697 34.7232 3.08677C33.9062 2.59657 31.9705 4.34336 31.9705 4.34336C10.4561 17.518 8.12457 35.3586 8.12457 35.3586C8.12457 35.3586 7.97466 36.2577 9.09856 36.1828C10.2223 36.1078 9.18338 29.1153 19.4449 21.4697Z" fill="#1DA1F2"/>
<path d="M5.43993 20.3199C5.19691 20.3199 5 20.1235 5 19.8805V13.3607C5 11.1604 6.78977 9.37128 8.99008 9.37128H15.473C15.716 9.37128 15.9129 9.56756 15.9129 9.81058C15.9129 10.0535 15.716 10.2499 15.473 10.2499H8.99008C7.27507 10.2499 5.87987 11.6451 5.87987 13.3607V19.8805C5.87987 20.1235 5.68284 20.3199 5.43993 20.3199Z" fill="#1DA1F2"/>
<path d="M29.2417 33.9313H22.3512C22.1082 33.9313 21.9113 33.7349 21.9113 33.492C21.9113 33.249 22.1082 33.0527 22.3512 33.0527H29.2417C30.9565 33.0527 32.3519 31.6574 32.3519 29.9419V23.4576C32.3519 23.2147 32.5488 23.0182 32.7918 23.0182C33.0347 23.0182 33.2317 23.2147 33.2317 23.4576V29.9419C33.2317 32.1422 31.4418 33.9313 29.2417 33.9313Z" fill="#1DA1F2"/>
</svg>
