<svg width="366" height="366" viewBox="0 0 366 366" fill="none" xmlns="http://www.w3.org/2000/svg">
<path d="M0 130.133C0 84.5824 0 61.8069 8.8648 44.4088C16.6625 29.1049 29.1049 16.6625 44.4088 8.8648C61.8069 0 84.5824 0 130.133 0H235.867C281.418 0 304.193 0 321.591 8.8648C336.895 16.6625 349.338 29.1049 357.135 44.4088C366 61.8069 366 84.5824 366 130.133V235.867C366 281.418 366 304.193 357.135 321.591C349.338 336.895 336.895 349.338 321.591 357.135C304.193 366 281.418 366 235.867 366H130.133C84.5824 366 61.8069 366 44.4088 357.135C29.1049 349.338 16.6625 336.895 8.8648 321.591C0 304.193 0 281.418 0 235.867V130.133Z" fill="url(#paint0_linear_718_8)"/>
<g opacity="0.7">
<path d="M227.71 102.494C215.154 104.297 202.666 109.997 194.158 121.796C182.344 113.237 168.606 111.855 156.418 113.785C126.132 118.582 99.7867 148.477 105.411 183.988C110.834 218.227 137.248 243.264 161.978 259.212C174.49 267.282 186.964 273.286 196.941 277.201C201.927 279.157 206.374 280.625 209.963 281.57C211.751 282.041 213.416 282.406 214.883 282.628C216.16 282.82 217.947 283.016 219.665 282.744C221.384 282.472 223.023 281.733 224.177 281.156C225.504 280.491 226.975 279.629 228.53 278.629C231.651 276.622 235.427 273.851 239.564 270.45C247.844 263.643 257.851 254.079 267.258 242.538C285.848 219.728 303.233 187.754 297.81 153.515C292.172 117.919 257.89 98.1609 227.71 102.494Z" fill="url(#paint1_linear_718_8)" fill-opacity="0.8"/>
</g>
<path d="M218.622 83.8127C205.938 83.6291 192.712 87.3057 182.462 97.6284C172.133 87.3258 158.781 83.8119 146.441 83.8119C115.777 83.8119 85.0796 109.217 85.0796 145.171C85.0796 179.837 107.252 208.698 129.182 228.318C140.278 238.246 151.659 246.127 160.901 251.555C165.519 254.267 169.682 256.413 173.079 257.907C174.771 258.652 176.359 259.273 177.773 259.722C179.004 260.112 180.739 260.585 182.478 260.585C184.218 260.585 185.953 260.112 187.183 259.722C188.598 259.273 190.186 258.652 191.878 257.907C195.274 256.413 199.437 254.267 204.055 251.555C213.298 246.127 224.678 238.246 235.774 228.318C257.704 208.698 279.877 179.837 279.877 145.171C279.877 109.132 249.108 84.2538 218.622 83.8127Z" fill="#FFEAEC"/>
<defs>
<linearGradient id="paint0_linear_718_8" x1="183" y1="0" x2="183" y2="366" gradientUnits="userSpaceOnUse">
<stop stop-color="#FE3C72"/>
<stop offset="1" stop-color="#EF4A75"/>
</linearGradient>
<linearGradient id="paint1_linear_718_8" x1="192.011" y1="108.142" x2="219.665" y2="282.744" gradientUnits="userSpaceOnUse">
<stop stop-color="#FF9BCB"/>
<stop offset="1" stop-color="#FFC3BF"/>
</linearGradient>
</defs>
</svg>
