<svg width="366" height="366" viewBox="0 0 366 366" fill="none" xmlns="http://www.w3.org/2000/svg">
<g clip-path="url(#clip0_715_28)">
<path d="M0 130.133C0 84.5824 0 61.8069 8.8648 44.4088C16.6625 29.1049 29.1049 16.6625 44.4088 8.8648C61.8069 0 84.5824 0 130.133 0H235.867C281.418 0 304.193 0 321.591 8.8648C336.895 16.6625 349.337 29.1049 357.135 44.4088C366 61.8069 366 84.5824 366 130.133V235.867C366 281.418 366 304.193 357.135 321.591C349.337 336.895 336.895 349.337 321.591 357.135C304.193 366 281.418 366 235.867 366H130.133C84.5824 366 61.8069 366 44.4088 357.135C29.1049 349.337 16.6625 336.895 8.8648 321.591C0 304.193 0 281.418 0 235.867V130.133Z" fill="url(#paint0_linear_715_28)"/>
<path d="M138.014 229.672C145.127 244.805 155.757 259.273 169.663 272.743C140.515 268.361 116.279 250.552 103.117 225.921L138.014 229.672H138.014ZM169.134 93.9882C140.737 98.4426 117.091 115.619 103.863 139.398L138.022 136.031C145.048 121.202 155.517 107.089 169.133 93.988L169.134 93.9882ZM179.844 136.481L180.318 93H180.221C164.943 106.35 153.317 120.801 145.569 136.096L179.843 136.482L179.844 136.481ZM106.069 149.983L99.7582 149.927L93.5198 149.846L93.0301 195.007L67.7723 149.572L53.6901 149.419L53 213.684L59.2784 213.772L65.5246 213.828L66.0225 167.502L92.0115 214.118L105.387 214.271L106.07 149.982L106.069 149.983ZM166.099 162.047L166.155 156.317L166.227 150.626L118.955 150.12L118.264 214.41L167.006 214.924L167.07 209.21L167.127 203.511L131.808 203.133L131.985 186.36L163.385 186.697L163.441 181.184L163.498 175.638L132.097 175.308L132.25 161.677L166.099 162.046V162.047ZM230.183 197.989L221.384 151.228L207.101 151.059L197.427 198.02L187.198 150.858L173.252 150.697L190.433 215.179L196.8 215.244L203.183 215.325L213.805 164.803L223.576 215.534L229.982 215.622L236.341 215.686L254.903 151.589L241.342 151.444L230.183 197.988L230.183 197.989ZM187.214 93.0797H187.118L186.653 136.553L220.951 136.915C213.517 121.451 202.213 106.759 187.215 93.0797H187.214ZM260.467 137.333C246.192 113.481 221.834 96.9396 193.441 93.5824C211.629 107.683 221.785 122.014 228.505 136.995L260.467 137.332L260.467 137.333ZM193.926 273C223.058 269.262 247.526 252.098 261.244 228.004L226.498 230.628C219.056 245.601 208.105 259.827 193.927 273L193.926 273ZM218.895 230.548L185.648 230.186L185.198 271.706C199.827 258.951 211.139 245.103 218.894 230.547L218.895 230.548ZM307.434 185.427C304.304 182.654 298.105 180.163 288.784 178C282.361 176.457 278.162 175.195 276.203 174.103C274.204 173.049 273.2 171.547 273.225 169.61C273.241 166.966 274.228 164.82 276.179 163.349C278.098 161.926 280.779 161.195 284.176 161.243C288.11 161.275 291.289 162.224 293.722 164.016C296.138 165.824 297.448 168.243 297.64 171.314L310.702 171.474C310.285 165.005 307.836 159.892 303.356 156.051C298.901 152.209 293.055 150.256 285.862 150.184C278.187 150.096 272.061 151.872 267.509 155.44C262.965 159.049 260.661 164.032 260.596 170.237C260.54 175.807 262.194 179.922 265.558 182.598C268.97 185.258 275.762 187.798 285.91 190.169C291.434 191.455 295.023 192.717 296.709 193.842C298.411 195 299.262 196.767 299.238 199.211C299.214 201.662 297.986 203.543 295.569 204.91C293.144 206.26 289.812 206.919 285.517 206.87C281.366 206.822 278.114 205.882 275.819 204.009C273.491 202.168 272.302 199.557 272.19 196.109L259.272 195.972C259.505 202.917 261.906 208.285 266.434 212.095C270.97 215.937 277.305 217.874 285.405 217.954C293.522 218.035 299.937 216.371 304.722 212.85C309.523 209.346 311.932 204.596 311.996 198.552C312.092 192.556 310.551 188.168 307.435 185.427L307.434 185.427ZM178.399 271.594L178.848 230.122L145.602 229.76C153.068 244.468 164.059 258.549 178.398 271.593L178.399 271.594Z" fill="white"/>
</g>
<defs>
<linearGradient id="paint0_linear_715_28" x1="183" y1="0" x2="183" y2="366" gradientUnits="userSpaceOnUse">
<stop stop-color="#F29A08"/>
<stop offset="1" stop-color="#FA701A"/>
</linearGradient>
<clipPath id="clip0_715_28">
<rect width="366" height="366" fill="white"/>
</clipPath>
</defs>
</svg>
