<svg width="366" height="366" viewBox="0 0 366 366" fill="none" xmlns="http://www.w3.org/2000/svg">
<g clip-path="url(#clip0_714_59)">
<path d="M0 130.133C0 84.5824 0 61.8069 8.8648 44.4088C16.6625 29.1049 29.1049 16.6625 44.4088 8.8648C61.8069 0 84.5824 0 130.133 0H235.867C281.418 0 304.193 0 321.591 8.8648C336.895 16.6625 349.337 29.1049 357.135 44.4088C366 61.8069 366 84.5824 366 130.133V235.867C366 281.418 366 304.193 357.135 321.591C349.337 336.895 336.895 349.337 321.591 357.135C304.193 366 281.418 366 235.867 366H130.133C84.5824 366 61.8069 366 44.4088 357.135C29.1049 349.337 16.6625 336.895 8.8648 321.591C0 304.193 0 281.418 0 235.867V130.133Z" fill="url(#paint0_linear_714_59)"/>
<path d="M275.892 259.642H91.0932C79.2901 259.642 72 253.162 72 243.558C72 231.408 83.2245 220.877 93.6389 210.81C101.045 203.52 103.243 188.477 104.285 175.517C104.632 167.995 105.211 160.821 106.136 153.878C112.154 156.423 118.865 157.928 125.808 157.928C156.704 157.928 182.046 132.586 182.046 101.69C182.046 87.4566 176.608 74.4963 167.813 64.6604C172.442 62.1147 177.765 60.8418 183.551 60.8418C200.677 60.8418 213.174 72.5291 217.918 87.8037C248.005 98.681 260.386 128.652 262.006 171.235C263.395 186.394 265.362 202.941 273.462 210.81C283.877 220.877 294.985 231.408 294.985 243.558C294.985 253.162 287.811 259.642 275.892 259.642ZM125.692 141.612C103.938 141.612 85.7702 123.56 85.7702 101.69C85.7702 79.7036 103.938 61.7675 125.692 61.7675C147.678 61.7675 165.615 79.7036 165.615 101.69C165.615 123.56 147.678 141.612 125.692 141.612ZM183.435 307.202C163.069 307.202 148.141 292.622 146.637 275.727H220.348C218.844 292.622 203.917 307.202 183.435 307.202Z" fill="white"/>
</g>
<defs>
<linearGradient id="paint0_linear_714_59" x1="183" y1="0" x2="183" y2="366" gradientUnits="userSpaceOnUse">
<stop stop-color="#FB5976"/>
<stop offset="1" stop-color="#FA243B"/>
</linearGradient>
<clipPath id="clip0_714_59">
<rect width="366" height="366" fill="white"/>
</clipPath>
</defs>
</svg>
