<svg width="366" height="366" viewBox="0 0 366 366" fill="none" xmlns="http://www.w3.org/2000/svg">
<g clip-path="url(#clip0_714_36)">
<path d="M0 130.133C0 84.5824 0 61.8069 8.8648 44.4088C16.6625 29.1049 29.1049 16.6625 44.4088 8.8648C61.8069 0 84.5824 0 130.133 0H235.867C281.418 0 304.193 0 321.591 8.8648C336.895 16.6625 349.337 29.1049 357.135 44.4088C366 61.8069 366 84.5824 366 130.133V235.867C366 281.418 366 304.193 357.135 321.591C349.337 336.895 336.895 349.337 321.591 357.135C304.193 366 281.418 366 235.867 366H130.133C84.5824 366 61.8069 366 44.4088 357.135C29.1049 349.337 16.6625 336.895 8.8648 321.591C0 304.193 0 281.418 0 235.867V130.133Z" fill="url(#paint0_linear_714_36)"/>
<path opacity="0.4" d="M265.879 266.847L250.02 280.12C240.649 287.963 226.49 286.789 218.572 277.328C204.923 261.018 187.808 264.003 180.524 284.043C176.336 295.515 163.456 301.545 151.908 297.267L129.941 289.144C119.749 285.57 114.579 274.268 118.153 264.075L119.036 261.651C126.396 241.702 115.235 228.367 94.2254 232.007L91.6838 232.448C81.0211 234.171 70.8061 227.091 69.0835 216.429L64.9577 193.375C62.7808 181.253 70.9854 169.637 83.0164 167.535C104.026 163.895 109.979 147.575 96.3291 131.265C88.4863 121.894 89.6595 107.736 99.1206 99.8173L114.979 86.5448C124.35 78.7019 138.51 79.8755 146.428 89.3367C160.077 105.646 177.192 102.661 184.476 82.6216C188.754 71.0736 201.544 65.1191 213.092 69.3973L235.059 77.5199C245.251 81.0939 250.42 92.3963 246.846 102.589L245.964 105.013C238.604 124.962 249.765 138.298 270.775 134.658L273.316 134.216C283.979 132.494 294.194 139.573 295.916 150.236L300.042 173.29C302.219 185.411 294.015 197.027 281.984 199.129C260.974 202.769 255.021 219.09 268.671 235.399C276.589 244.86 275.25 259.005 265.879 266.847Z" fill="black"/>
<path d="M211.823 158.869C198.287 142.695 174.203 140.557 158.029 154.093C141.856 167.629 139.718 191.713 153.254 207.886C166.79 224.06 190.874 226.198 207.047 212.662C223.221 199.126 225.359 175.042 211.823 158.869Z" fill="#292D32"/>
</g>
<defs>
<linearGradient id="paint0_linear_714_36" x1="183" y1="0" x2="183" y2="366" gradientUnits="userSpaceOnUse">
<stop stop-color="#E8E8E8"/>
<stop offset="1" stop-color="#919195"/>
</linearGradient>
<clipPath id="clip0_714_36">
<rect width="366" height="366" fill="white"/>
</clipPath>
</defs>
</svg>
