<svg width="366" height="366" viewBox="0 0 366 366" fill="none" xmlns="http://www.w3.org/2000/svg">
<g clip-path="url(#clip0_716_11)">
<path d="M0 130.133C0 84.5824 0 61.8069 8.8648 44.4088C16.6625 29.1049 29.1049 16.6625 44.4088 8.8648C61.8069 0 84.5824 0 130.133 0H235.867C281.418 0 304.193 0 321.591 8.8648C336.895 16.6625 349.338 29.1049 357.135 44.4088C366 61.8069 366 84.5824 366 130.133V235.867C366 281.418 366 304.193 357.135 321.591C349.338 336.895 336.895 349.338 321.591 357.135C304.193 366 281.418 366 235.867 366H130.133C84.5824 366 61.8069 366 44.4088 357.135C29.1049 349.338 16.6625 336.895 8.8648 321.591C0 304.193 0 281.418 0 235.867V130.133Z" fill="url(#paint0_linear_716_11)"/>
<path d="M237.422 241.04C226.365 241.039 217.37 232.045 217.37 220.988V187.689C217.37 176.632 226.365 167.638 237.422 167.638H289.669C289.986 167.638 290.3 167.647 290.613 167.661V134.489C290.613 125.95 283.691 119.028 275.152 119.028H83.4613C74.922 119.028 68 125.95 68 134.489V274.188C68 282.727 74.922 289.649 83.4613 289.649H275.152C283.691 289.649 290.613 282.727 290.613 274.188V241.016C290.3 241.03 289.986 241.04 289.669 241.04H237.422Z" fill="white"/>
<path d="M289.669 178.625H237.422C232.416 178.625 228.358 182.683 228.358 187.689V220.988C228.358 225.994 232.416 230.053 237.422 230.053H289.669C294.675 230.053 298.733 225.995 298.733 220.988V187.689C298.733 182.682 294.675 178.625 289.669 178.625ZM255.425 217.421C248.2 217.421 242.343 211.564 242.343 204.338C242.343 197.113 248.2 191.255 255.425 191.255C262.651 191.255 268.508 197.113 268.508 204.338C268.508 211.564 262.651 217.421 255.425 217.421Z" fill="white"/>
<path d="M248.231 90.707C244.772 80.2374 233.481 74.5542 223.011 78.0132L144.465 103.963H252.61L248.231 90.707Z" fill="white"/>
</g>
<defs>
<linearGradient id="paint0_linear_716_11" x1="183" y1="0" x2="183" y2="366" gradientUnits="userSpaceOnUse">
<stop stop-color="#DB7DFD"/>
<stop offset="1" stop-color="#7A38BA"/>
</linearGradient>
<clipPath id="clip0_716_11">
<rect width="366" height="366" fill="white"/>
</clipPath>
</defs>
</svg>
