<svg width="366" height="366" viewBox="0 0 366 366" fill="none" xmlns="http://www.w3.org/2000/svg">
<path d="M0 130.133C0 84.5824 0 61.8069 8.8648 44.4088C16.6625 29.1049 29.1049 16.6625 44.4088 8.8648C61.8069 0 84.5824 0 130.133 0H235.867C281.418 0 304.193 0 321.591 8.8648C336.895 16.6625 349.337 29.1049 357.135 44.4088C366 61.8069 366 84.5824 366 130.133V235.867C366 281.418 366 304.193 357.135 321.591C349.337 336.895 336.895 349.337 321.591 357.135C304.193 366 281.418 366 235.867 366H130.133C84.5824 366 61.8069 366 44.4088 357.135C29.1049 349.337 16.6625 336.895 8.8648 321.591C0 304.193 0 281.418 0 235.867V130.133Z" fill="url(#paint0_linear_714_55)"/>
<path d="M298 133.625C298 105.113 274.88 82 246.359 82H195.641C167.12 82 144 105.113 144 133.625V148.375C144 176.887 167.12 200 195.641 200H283.246C291.394 200 298 193.396 298 185.25V133.625Z" fill="#A1E1C7"/>
<path d="M213.405 154.586L263 134.772V99.732L213.405 154.586ZM200.339 92L192.352 128.976L221.624 92H200.339ZM263 193.007V176.33L227.918 187.689L263 193.007ZM196.223 159.659C176.531 133.419 152.331 117.338 135.255 118.094C131.318 118.266 127.64 119.182 124.612 121.237C117.582 125.992 119.932 136.602 115.178 147.338C98.9254 184.002 82.5067 210.6 68 230.228V273C93.5145 264.167 131.504 255.023 187.034 253.186C198.686 252.801 207.629 258.398 214.613 253.67C231.862 241.999 225.615 202.987 200.824 166.436C199.277 164.155 197.843 161.82 196.23 159.672L196.223 159.659ZM141.549 146.469C148.228 142.411 166.008 157.716 181.265 180.647C196.522 203.577 203.466 225.454 196.787 229.512C194.039 231.177 189.418 229.572 183.867 225.514C175.947 217.503 167.502 207.185 159.455 195.328C151.481 183.564 145.008 171.946 140.434 161.635C138.289 153.916 138.488 148.326 141.549 146.469Z" fill="white"/>
<defs>
<linearGradient id="paint0_linear_714_55" x1="183" y1="0" x2="183" y2="366" gradientUnits="userSpaceOnUse">
<stop stop-color="#13B373"/>
<stop offset="1" stop-color="#0E8153"/>
</linearGradient>
</defs>
</svg>
