<svg width="366" height="366" viewBox="0 0 366 366" fill="none" xmlns="http://www.w3.org/2000/svg">
<g clip-path="url(#clip0_714_63)">
<path d="M0 130.133C0 84.5824 0 61.8069 8.8648 44.4088C16.6625 29.1049 29.1049 16.6625 44.4088 8.8648C61.8069 0 84.5824 0 130.133 0H235.867C281.418 0 304.193 0 321.591 8.8648C336.895 16.6625 349.337 29.1049 357.135 44.4088C366 61.8069 366 84.5824 366 130.133V235.867C366 281.418 366 304.193 357.135 321.591C349.337 336.895 336.895 349.337 321.591 357.135C304.193 366 281.418 366 235.867 366H130.133C84.5824 366 61.8069 366 44.4088 357.135C29.1049 349.337 16.6625 336.895 8.8648 321.591C0 304.193 0 281.418 0 235.867V130.133Z" fill="url(#paint0_linear_714_63)"/>
<path fill-rule="evenodd" clip-rule="evenodd" d="M86.5978 155.074L86.4717 155.158C80.6064 159.068 77.0833 165.651 77.0833 172.7V256.292C77.0833 262.114 81.803 266.833 87.625 266.833H98.1667C103.989 266.833 108.708 262.114 108.708 256.292V245.75H256.292V256.292C256.292 262.114 261.011 266.833 266.833 266.833H277.375C283.197 266.833 287.917 262.114 287.917 256.292V172.7C287.917 165.651 284.394 159.068 278.528 155.158L278.402 155.074C282.244 152.855 285.724 150.675 286.4 149.704C288.03 147.361 288.78 140.333 286.4 140.333H266.833L254.491 115.648C249.134 104.934 238.183 98.1665 226.205 98.1665H138.795C126.817 98.1665 115.866 104.934 110.509 115.648L98.1667 140.333H78.6001C76.2204 140.333 76.9695 147.361 78.6001 149.704C79.2762 150.675 82.7558 152.855 86.5978 155.074ZM120.325 119.87L102.301 153.665C100.428 157.176 102.972 161.417 106.951 161.417H258.049C262.028 161.417 264.572 157.176 262.699 153.665L244.675 119.87C241.011 113 233.859 108.708 226.072 108.708H138.928C131.141 108.708 123.989 113 120.325 119.87ZM87.625 193.883V181.135C87.625 177.067 92.0378 174.532 95.5517 176.582L130.748 197.114C135.599 199.943 133.251 207.385 127.655 206.919L97.2912 204.389C91.8276 203.933 87.625 199.366 87.625 193.883ZM277.375 181.135V193.883C277.375 199.366 273.172 203.933 267.709 204.389L237.345 206.919C231.749 207.385 229.401 199.943 234.252 197.114L269.448 176.582C272.962 174.532 277.375 177.067 277.375 181.135Z" fill="white"/>
</g>
<defs>
<linearGradient id="paint0_linear_714_63" x1="183" y1="0" x2="183" y2="366" gradientUnits="userSpaceOnUse">
<stop stop-color="#3C72F6"/>
<stop offset="1" stop-color="#2D408D"/>
</linearGradient>
<clipPath id="clip0_714_63">
<rect width="366" height="366" fill="white"/>
</clipPath>
</defs>
</svg>
