<svg width="366" height="366" viewBox="0 0 366 366" fill="none" xmlns="http://www.w3.org/2000/svg">
<g clip-path="url(#clip0_714_181)">
<path d="M0 130.133C0 84.5824 0 61.8069 8.8648 44.4088C16.6625 29.1049 29.1049 16.6625 44.4088 8.8648C61.8069 0 84.5824 0 130.133 0H235.867C281.418 0 304.193 0 321.591 8.8648C336.895 16.6625 349.337 29.1049 357.135 44.4088C366 61.8069 366 84.5824 366 130.133V235.867C366 281.418 366 304.193 357.135 321.591C349.337 336.895 336.895 349.337 321.591 357.135C304.193 366 281.418 366 235.867 366H130.133C84.5824 366 61.8069 366 44.4088 357.135C29.1049 349.337 16.6625 336.895 8.8648 321.591C0 304.193 0 281.418 0 235.867V130.133Z" fill="url(#paint0_linear_714_181)"/>
<path d="M175.679 115.948L108.167 161.132C104.789 163.393 102.793 166.984 102.793 170.802V274.728C102.793 281.356 108.691 286.728 115.966 286.728H250.99C258.265 286.728 264.163 281.356 264.163 274.728V170.802C264.163 166.984 262.167 163.393 258.789 161.132L191.277 115.948C186.637 112.842 180.319 112.842 175.679 115.948Z" fill="#BDCBFC"/>
<ellipse cx="159.328" cy="207.728" rx="9.87975" ry="9" fill="white"/>
<ellipse cx="207.629" cy="207.728" rx="9.87975" ry="9" fill="white"/>
<path d="M190.033 99.9928C185.221 96.6099 178.493 96.6654 173.749 100.127L85.8753 164.251C82.3468 166.826 77.2831 166.668 73.9559 163.88C69.7984 160.396 70.0645 154.346 74.5148 151.176L171.068 82.3961C177.4 77.8861 186.283 77.8661 192.639 82.3475L287.751 149.413C291.985 152.399 292.099 158.187 287.986 161.31C284.97 163.599 280.613 163.674 277.505 161.489L190.033 99.9928Z" fill="white"/>
</g>
<defs>
<linearGradient id="paint0_linear_714_181" x1="183" y1="0" x2="183" y2="366" gradientUnits="userSpaceOnUse">
<stop stop-color="#115BB5"/>
<stop offset="1" stop-color="#2E98E4"/>
</linearGradient>
<clipPath id="clip0_714_181">
<rect width="366" height="366" fill="white"/>
</clipPath>
</defs>
</svg>
