<svg width="6071" height="3902" viewBox="0 0 6071 3902" fill="none" xmlns="http://www.w3.org/2000/svg">
<path d="M6.2793 5C1306.14 204.979 3108.68 2477.92 2942.33 3268.29C2833.26 3786.42 1555.3 3774.79 1206.15 3868.23C730.021 3995.49 1631.56 3519.09 1815.18 2968.33C2033.34 2313.85 1702.19 593.302 2752.72 895.816C3669.53 1159.97 3868.06 2015.52 4525.26 1995.7C5119.65 1977.52 5582.69 1259.41 5879.66 659.477" stroke="#808080" stroke-opacity="0.25" stroke-width="9" stroke-miterlimit="10"/>
<path d="M6.18945 57.4492C1251.51 280.426 2985.6 2481.65 2846.98 3238.93C2756.08 3735.06 1545.76 3718.52 1222.7 3802.51C774.836 3918.77 1637.93 3460.91 1820 2932.51C2038.16 2298.94 1737.1 652.387 2751.26 944.083C3655.99 1203.6 3838.61 2079.06 4501.72 2080.33C5097.2 2079.24 5578.51 1376.67 5888.57 789.554" stroke="#808080" stroke-opacity="0.25" stroke-width="9" stroke-miterlimit="10"/>
<path d="M6.08105 109.624C1196.87 355.598 2862.51 2484.92 2751.7 3209.3C2678.98 3683.43 1536.19 3661.98 1239.22 3736.52C819.541 3841.41 1644.27 3402.46 1824.8 2896.33C2042.96 2283.67 1772.08 711.288 2749.79 992.077C3642.43 1247.05 3809.14 2144.68 4478.25 2164.68C5074.73 2182.86 5574.31 1493.75 5897.55 919.357" stroke="#808080" stroke-opacity="0.25" stroke-width="9" stroke-miterlimit="10"/>
<path d="M6.08105 162.165C1142.33 431.228 2739.52 2488.28 2656.44 3180.03C2601.9 3631.89 1526.65 3605.8 1255.77 3670.89C864.082 3763.79 1650.73 3344.01 1829.62 2860.25C2048.41 2268.4 1807.07 770.192 2748.43 1039.98C3628.88 1290.5 3779.5 2209.4 4454.61 2248.95C5052.1 2284.31 5570.04 1610.92 5906.46 1049.07" stroke="#808080" stroke-opacity="0.25" stroke-width="9" stroke-miterlimit="10"/>
<path d="M5.99609 214.523C1088.25 506.584 2616.45 2491.19 2561.18 3150.58C2524.82 3580.08 1517.2 3549.36 1272.41 3604.53C908.81 3686.34 1657.28 3285.66 1834.44 2824.16C2053.6 2253.22 1842.08 829.186 2746.98 1087.98C3615.34 1333.95 3749.97 2273.13 4431.26 2333.3C5029.56 2386.11 5566.05 1728 5915.47 1178.88" stroke="#808080" stroke-opacity="0.25" stroke-width="9" stroke-miterlimit="10"/>
<path d="M5.90625 266.882C1033.8 582.031 2493.37 2493.92 2465.83 3121.13C2447.65 3527.99 1507.75 3492.91 1288.95 3538.63C953.716 3608.62 1664.01 3227.21 1839.26 2788.07C2058.87 2237.95 1877.07 888.271 2745.62 1136.06C3601.71 1377.58 3720.33 2337.3 4407.72 2417.75C5007.02 2487.92 5562.14 1845.08 5924.47 1308.77" stroke="#808080" stroke-opacity="0.25" stroke-width="9" stroke-miterlimit="10"/>
<path d="M5.90625 319.332C979.35 657.478 2370.2 2495.29 2370.57 3091.77C2370.57 3475.64 1497.93 3436.28 1305.5 3472.64C998.438 3530.54 1670.73 3168.85 1844.08 2752.08C2064.24 2222.68 1911.98 947.084 2743.98 1184.15C3587.98 1421.03 3690.43 2401.3 4384.08 2502.19C4984.02 2589.46 5557.51 1962.52 5933.28 1438.67" stroke="#808080" stroke-opacity="0.25" stroke-width="9" stroke-miterlimit="10"/>
<path d="M5.81543 371.688C924.81 732.832 2246.85 2496.65 2275.3 3062.32C2293.48 3423 1489.02 3379.55 1322.13 3406.73C1043.16 3452.18 1677.73 3110.49 1849.35 2715.9C2070.24 2206.86 1946.98 1007.71 2743.16 1232.05C3574.53 1466.3 3661.25 2465.01 4361.18 2586.46C4962.3 2690.81 5553.96 2079.6 5942.83 1568.38" stroke="#808080" stroke-opacity="0.25" stroke-width="9" stroke-miterlimit="10"/>
<path d="M5.73047 424.049C870.367 808.281 2123.14 2497.47 2179.96 3032.87C2215.77 3370.01 1480.03 3322.74 1338.68 3340.74C1088.07 3372.74 1684.74 3052.14 1853.81 2679.99C2075.33 2192.05 1981.07 1066.98 2741.35 1280.14C3560.54 1510.03 3631.35 2528.65 4337.28 2670.9C4939.21 2792.16 5549.42 2196.86 5951.38 1698.28" stroke="#808080" stroke-opacity="0.25" stroke-width="9" stroke-miterlimit="10"/>
<path d="M5.73047 476.404C815.918 883.634 1999.07 2497.56 2084.69 3003.41C2137.78 3316.74 1471.12 3265.66 1355.23 3274.84C1133.07 3292.38 1691.55 2993.78 1858.63 2643.9C2081.15 2176.77 2016.43 1125.88 2740.35 1328.31C3547.36 1553.84 3602.17 2592.27 4314.19 2755.44C4917.03 2893.51 5545.69 2314.12 5960.83 1828.26" stroke="#808080" stroke-opacity="0.25" stroke-width="9" stroke-miterlimit="10"/>
<path d="M5.63965 528.763C761.469 959.082 1874.26 2497.1 1989.43 2973.96C2059.24 3263.2 1462.94 3208.39 1371.31 3208.94C1178.24 3210.03 1698.55 2935.51 1862.99 2607.82C2086.6 2161.41 2050.88 1185.06 2738.08 1376.31C3532.82 1597.56 3571.63 2655.63 4289.83 2839.79C4893.58 2994.32 5540.6 2431.29 5968.83 1958.07" stroke="#808080" stroke-opacity="0.25" stroke-width="9" stroke-miterlimit="10"/>
<path d="M5.54883 581.213C707.021 1034.44 1748.64 2496.1 1894.17 2944.6C1980.07 3209.39 1452.76 3165.76 1388.4 3142.94C1225.88 3161.12 1706.55 2877.24 1868.26 2571.82C2093.15 2146.14 2086.42 1244.05 2737.08 1424.4C3519.73 1641.19 3542.54 2718.9 4266.74 2924.24C4871.49 3095.59 5536.88 2548.55 5978.29 2087.96" stroke="#808080" stroke-opacity="0.25" stroke-width="9" stroke-miterlimit="10"/>
<path d="M5.54883 633.568C652.481 1109.88 1621.74 2494.74 1798.82 2915.15C1900.08 3155.49 1443.49 3110.4 1404.95 3077.04C1270.96 3085.4 1714.64 2819.07 1873.08 2535.73C2099.51 2130.87 2121.33 1303.04 2735.63 1472.21C3506.09 1684.64 3513 2781.89 4243.29 3008.41C4849.04 3196.3 5532.7 2665.54 5987.28 2217.58" stroke="#808080" stroke-opacity="0.25" stroke-width="9" stroke-miterlimit="10"/>
<path d="M5.46387 685.93C598.038 1185.24 1493.49 2493.47 1703.56 2885.7C1819.18 3101.68 1434.13 3055.04 1421.77 3011.05C1316.24 3009.5 1722.92 2760.89 1878.18 2499.74C2106.43 2115.6 2156.6 1361.95 2734.54 1520.48C3492.82 1728.46 3483.83 2845.16 4220.11 3093.04C4826.87 3297.29 5529.07 2782.98 5996.47 2347.66" stroke="#808080" stroke-opacity="0.25" stroke-width="9" stroke-miterlimit="10"/>
<path d="M5.35645 738.285C543.573 1260.68 1363.67 2492.65 1608.28 2856.24C1737.36 3048.13 1424.84 2999.68 1438.02 2945.14C1361.03 2933.6 1730.9 2702.9 1882.7 2463.38C2113.14 2099.78 2191.31 1420.58 2732.8 1568.2C3478.99 1771.72 3454.09 2907.78 4196.28 3177.12C4804.13 3397.82 5524.41 2899.88 6005.18 2477.19" stroke="#808080" stroke-opacity="0.25" stroke-width="9" stroke-miterlimit="10"/>
<path d="M5.35645 790.646C489.124 1336.04 1232.5 2493.1 1512.93 2826.8C1654.64 2995.23 1415.48 2944.33 1454.66 2879.24C1406.12 2857.79 1739.45 2645 1887.52 2427.66C2120.5 2085.69 2226.31 1479.66 2731.34 1616.56C3465.45 1815.45 3424.72 2970.96 4172.83 3261.84C4781.86 3498.73 5520.23 3017.32 6014.18 2607.36" stroke="#808080" stroke-opacity="0.25" stroke-width="9" stroke-miterlimit="10"/>
<path d="M5.26562 843.002C434.675 1411.49 1099.33 2495.37 1417.66 2797.34C1571.37 2943.24 1406.21 2888.97 1471.2 2813.25C1451.2 2781.89 1748.26 2587.37 1892.34 2391.57C2128.22 2071.06 2261.3 1538.47 2729.98 1664.37C3451.9 1858.62 3395.46 3033.32 4149.29 3346.01C4759.49 3599.08 5516.05 3134.31 6023.09 2736.99" stroke="#808080" stroke-opacity="0.25" stroke-width="9" stroke-miterlimit="10"/>
<path d="M5.17578 895.45C380.136 1486.84 965.711 2500.1 1322.4 2767.98C1487.93 2892.24 1396.85 2833.61 1487.75 2747.35C1496.29 2706.08 1757.45 2529.91 1896.8 2355.48C2136.23 2056.87 2296.03 1597.29 2728.16 1712.64C3438 1902.16 3365.91 3096.31 4125.47 3430.64C4736.86 3699.79 5511.6 3251.75 6031.73 2867.06" stroke="#808080" stroke-opacity="0.25" stroke-width="9" stroke-miterlimit="10"/>
<path d="M5.17578 947.811C325.688 1562.29 831.907 2507.28 1227.14 2738.53C1404.57 2842.34 1400.67 2792.16 1504.29 2681.45C1547.47 2635.27 1766.9 2472.38 1902.07 2319.48C2145.5 2043.33 2331.48 1655.92 2727.16 1760.73C3424.91 1945.43 3337.1 3158.85 4102.29 3515.09C4715.05 3800.33 5507.78 3368.92 6041.09 2996.96" stroke="#808080" stroke-opacity="0.25" stroke-width="9" stroke-miterlimit="10"/>
<path d="M5.09082 1000.44C271.245 1637.92 698.836 2517.19 1132.25 2709.35C1322.32 2793.7 1384.58 2730.53 1521.39 2615.72C1590.02 2558.09 1777.09 2416.38 1907.35 2283.67C2155.59 2030.87 2366.93 1714.91 2726.17 1808.99C3411.91 1988.7 3308.47 3221.66 4079.3 3599.71C4693.42 3900.95 5504.06 3486.45 6050.46 3127.03" stroke="#808080" stroke-opacity="0.25" stroke-width="9" stroke-miterlimit="10"/>
<path d="M5 1052.53C216.796 1713.1 567.032 2528.37 1036.53 2679.63C1239.87 2745.17 1371.13 2670.54 1537.48 2549.55C1632.74 2480.2 1786.54 2359.94 1911.71 2247.4C2165.5 2019.15 2401.75 1772.73 2724.26 1856.54C3398.37 2030.15 3279.57 3282.57 4055.3 3683.62C4671.24 4000.04 5499.42 3603.08 6059 3256.39" stroke="#808080" stroke-opacity="0.25" stroke-width="9" stroke-miterlimit="10"/>
<path d="M5 1104.88C162.347 1788.45 436.864 2541.1 941.265 2650.18C1592.74 2791.53 2095.05 1744.45 2722.9 1904.8C3384.83 2073.96 3250.11 3346.2 4031.85 3768.24C4648.79 4101.48 5495.33 3720.61 6068 3386.46" stroke="#808080" stroke-opacity="0.25" stroke-width="9" stroke-miterlimit="10"/>
</svg>
