<svg width="6541" height="3307" viewBox="0 0 6541 3307" fill="none" xmlns="http://www.w3.org/2000/svg">
<path d="M5581.68 1523.55C5527.96 952.474 4745.76 555.807 4145.43 535.693C3453.61 512.585 3170.47 995.199 2651.14 820.799C2177.21 661.814 2170.91 178.365 1821.36 86.2809C1500.12 1.66982 973.468 269.769 61.6582 1674.14" stroke="#808080" stroke-opacity="0.2" stroke-width="5" stroke-miterlimit="10"/>
<path d="M99.0748 1739.93C999.655 355.938 1527.12 76.5912 1853.55 148.487C2095.47 202.104 2178.77 440.517 2361.22 632.231C2452.16 730.781 2566.14 805.199 2692.93 848.805C3108.22 991.968 3371.64 729.036 3826.84 631.848C3942.88 606.729 4061.47 595.341 4180.17 597.917C4783.36 609.036 5558.84 957.316 5625.83 1508.29" stroke="#808080" stroke-opacity="0.2" stroke-width="5" stroke-miterlimit="10"/>
<path d="M136.599 1805.52C1025.94 442.014 1553.92 151.505 1884.85 210.751C2128.11 254.323 2217.5 481.827 2400.77 664.256C2494.14 759.522 2608.02 832.206 2733.74 876.767C3142.87 1021.71 3404.95 785.995 3861.46 694.362C3977.49 670.834 4095.63 659.385 4214.02 660.2C4820.08 664.189 5588.84 962.118 5669.1 1493" stroke="#808080" stroke-opacity="0.2" stroke-width="5" stroke-miterlimit="10"/>
<path d="M174.035 1870.9C1051.94 528.175 1580.71 226.613 1916.54 272.935C2161.33 306.666 2256.43 523.048 2440.8 696.304C2536.4 788.222 2650.1 859.207 2774.64 904.734C3178.01 1051.47 3437.87 842.838 3896.18 756.881C4012.25 734.687 4130.1 723.081 4248.27 722.206C4857.17 717.984 5619.14 966.64 5712.68 1477.42" stroke="#808080" stroke-opacity="0.2" stroke-width="5" stroke-miterlimit="10"/>
<path d="M211.446 1936.78C1078.13 614.247 1607.29 301.812 1948.33 335.222C2194.35 359.197 2295.64 564.479 2481.04 728.263C2578.93 816.882 2692.65 886.249 2816.24 932.732C3213.83 1081.27 3471.76 899.824 3932.08 819.453C4047.95 798.855 4165.24 787.211 4282.9 784.622C4894.72 772.193 5649.91 971.674 5756.83 1462.36" stroke="#808080" stroke-opacity="0.2" stroke-width="5" stroke-miterlimit="10"/>
<path d="M248.475 2002.45C1104.22 700.314 1634.61 367.525 1980.12 397.41C2226.76 418.469 2334.89 605.224 2521.07 760.311C2621.22 845.479 2734.95 913.222 2857.53 960.715C3249.35 1111.05 3505.16 956.787 3966.79 882.069C4082.57 862.812 4199.46 851.033 4316.75 846.806C4931.51 825.778 5679.91 976.378 5800.1 1447.06" stroke="#808080" stroke-opacity="0.2" stroke-width="5" stroke-miterlimit="10"/>
<path d="M286.388 2068.15C1130.41 786.483 1660.44 452.893 2011.84 459.104C2259.97 464.728 2374.3 646.564 2561.2 792.461C2663.49 874.143 2777.25 940.299 2898.83 988.797C3284.88 1140.93 3538.86 1013.76 4001.9 944.703C4117.58 926.905 4234.09 915.056 4350.99 909.204C4968.67 879.968 5710.3 981.002 5843.76 1431.88" stroke="#808080" stroke-opacity="0.2" stroke-width="5" stroke-miterlimit="10"/>
<path d="M323.808 2133.84C1156.3 872.542 1686.94 527.891 2043.61 521.881C2292.79 517.348 2413.95 687.034 2601.34 824.416C2705.68 902.536 2819.53 967.077 2940.14 1016.49C3320.31 1170.51 3572.47 1070.64 4037.03 1006.95C4145.11 992.25 4260.41 978.668 4385.24 971.113C5005.97 933.381 5740.69 985.921 5887.43 1416.51" stroke="#808080" stroke-opacity="0.2" stroke-width="5" stroke-miterlimit="10"/>
<path d="M361.229 2199.52C1182.69 958.72 1713.39 603.966 2075.31 583.869C2325.6 570.065 2453.7 727.605 2641.67 856.281C2748.08 930.8 2862.07 993.853 2981.74 1044.39C3356.14 1200.21 3606.28 1127.33 4072.43 1069.5C4180.96 1056 4295.95 1042.6 4419.88 1033.33C5042.75 987.162 5771.07 990.741 5931.09 1401.13" stroke="#808080" stroke-opacity="0.2" stroke-width="5" stroke-miterlimit="10"/>
<path d="M398.754 2265.11C1208.88 1044.79 1739.85 679.844 2107.09 646.351C2358.39 623.369 2493.92 768.395 2681.51 888.418C2789.83 959.287 2903.95 1020.88 3022.64 1072.55C3391.36 1230.17 3639.58 1184.48 4107.26 1131.82C4215.73 1119.5 4330.82 1106.1 4453.84 1095.23C5080.36 1040.2 5801.49 994.973 5974.78 1385.36" stroke="#808080" stroke-opacity="0.2" stroke-width="5" stroke-miterlimit="10"/>
<path d="M436.175 2330.79C1234.97 1130.86 1766.3 755.919 2138.59 708.526C2390.89 676.464 2533.48 808.761 2721.44 920.558C2831.67 987.634 2946 1047.74 3063.74 1100.52C3426.6 1259.94 3672.89 1241.34 4142.15 1194.84C4251.05 1183.91 4365.85 1170.4 4487.87 1158.01C5117.34 1094.08 5831.56 1000.27 6018.32 1370.57" stroke="#808080" stroke-opacity="0.2" stroke-width="5" stroke-miterlimit="10"/>
<path d="M473.596 2396.48C1261.16 1217.03 1792.95 832.003 2170.58 770.724C2423.98 729.685 2573.72 849.062 2761.67 952.616C2869.71 1012.1 2980.37 1072.19 3105.23 1128.52C3462.32 1289.63 3706.68 1298.32 4177.46 1257.38C4286.6 1247.74 4401.21 1234.13 4522.5 1220.23C5154.93 1147.41 5862.34 1005.01 6062.28 1355.3" stroke="#808080" stroke-opacity="0.2" stroke-width="5" stroke-miterlimit="10"/>
<path d="M511.02 2462.16C1287.33 1303.49 1818.9 908.251 2202.27 833.006C2456.77 782.891 2613.98 889.165 2801.8 984.668C2912.64 1041.04 3023.66 1099.58 3146.53 1156.5C3497.84 1319.71 3740.19 1355.19 4212.58 1319.92C4321.94 1311.66 4436.46 1297.94 4556.55 1282.42C5191.85 1200.51 5892.54 1009.72 6105.75 1340.02" stroke="#808080" stroke-opacity="0.2" stroke-width="5" stroke-miterlimit="10"/>
<path d="M548.242 2527.84C1313.44 1389.26 1845.93 984.646 2233.96 895.287C2489.54 836.391 2654.24 929.171 2841.93 1016.82C2955.66 1069.89 3066.95 1126.97 3187.43 1184.57C3533.08 1349.28 3773.3 1412.24 4247.68 1382.65C4357.38 1375.58 4471.61 1361.76 4590.79 1344.82C5229.06 1253.63 5922.93 1014.44 6149.41 1324.74" stroke="#808080" stroke-opacity="0.2" stroke-width="5" stroke-miterlimit="10"/>
<path d="M585.967 2593.43C1339.63 1475.34 1872.26 1061.21 2265.76 957.476C2522.53 889.705 2694.62 968.888 2881.97 1048.77C2998.6 1098.44 3110.34 1154.26 3229.13 1212.47C3568.81 1378.97 3807.3 1469.03 4282.8 1445.09C4397.5 1438.12 4511.77 1425.29 4625.15 1406.64C5266.18 1306.64 5953.61 1019.38 6193.09 1309.36" stroke="#808080" stroke-opacity="0.2" stroke-width="5" stroke-miterlimit="10"/>
<path d="M623.387 2659.12C1365.82 1561.51 1899.39 1137.51 2297.16 1019.65C2555.12 943.098 2734.7 1008.49 2922.2 1080.82C3041.74 1127 3153.73 1181.56 3270.43 1240.46C3604.43 1408.76 3840.9 1526.01 4317.72 1507.62C4432.25 1502.13 4546.31 1489.27 4659.19 1469.12C5303.32 1359.06 5983.7 1024.08 6236.86 1293.69" stroke="#808080" stroke-opacity="0.2" stroke-width="5" stroke-miterlimit="10"/>
<path d="M660.808 2724.8C1391.91 1647.57 1926.48 1214.49 2329.24 1081.85C2588.18 996.709 2775.37 1047.93 2962.24 1112.77C3084.69 1155.35 3196.92 1208.94 3311.63 1268.43C3639.76 1438.53 3874.41 1582.88 4353.02 1570.16C4467.39 1566.02 4581.26 1553.04 4693.63 1531.33C5340.33 1412.17 6014.09 1028.9 6280.51 1278.81" stroke="#808080" stroke-opacity="0.2" stroke-width="5" stroke-miterlimit="10"/>
<path d="M698.329 2790.49C1418.08 1734.13 1952.81 1291.15 2360.94 1144.13C2621.35 1050.23 2815.77 1087.16 3002.27 1144.82C3128.03 1183.62 3240.21 1236.23 3352.93 1296.42C3675.3 1468.12 3907.91 1639.84 4388.13 1632.8C4502.32 1629.95 4616.02 1616.84 4727.87 1593.63C5377.37 1464.88 6044.48 1033.63 6324.18 1263.53" stroke="#808080" stroke-opacity="0.2" stroke-width="5" stroke-miterlimit="10"/>
<path d="M735.749 2856.17C1443.8 1819.79 1979.71 1368.03 2392.71 1206.71C2654.4 1104.23 2856.05 1126.67 3042.38 1177.46C3170.75 1212.75 3283.67 1264.22 3394.2 1324.99C3710.79 1498.68 3941.48 1697.4 4423.23 1695.72C4537.23 1694.16 4650.78 1680.93 4762.09 1656.23C5414.39 1517.79 6075.33 1039.06 6367.82 1248.64" stroke="#808080" stroke-opacity="0.2" stroke-width="5" stroke-miterlimit="10"/>
<path d="M773.17 2921.86C1470.38 1905.98 2006.72 1444.92 2424.42 1268.6C2687.58 1157.46 2896.38 1165.21 3082.54 1208.93C3213.85 1239.84 3326.89 1291.01 3435.52 1352.58C3746.24 1528.07 3975.01 1753.88 4458.35 1758.06C4572.17 1757.84 4685.59 1744.48 4796.35 1718.23C5451.35 1569.81 6105.26 1043.17 6411.5 1232.97" stroke="#808080" stroke-opacity="0.2" stroke-width="5" stroke-miterlimit="10"/>
<path d="M810.696 2987.44C1496.57 1992.05 2033.7 1522.29 2455.82 1330.77C2720.36 1211.15 2936.2 1204.02 3122.18 1240.96C3256.44 1267.59 3369.79 1318.28 3476.34 1380.25C3781.39 1557.64 4008.23 1810.64 4493.08 1820.39C4606.74 1821.4 4720.07 1807.91 4830.31 1780.23C5487.57 1621.01 6135.26 1047.97 6454.98 1217.59" stroke="#808080" stroke-opacity="0.2" stroke-width="5" stroke-miterlimit="10"/>
<path d="M848.016 3053.12C1942.75 1470.75 2678.17 1194.02 3162.7 1273.03C3691.64 1359.26 3872.07 1862.13 4528.57 1883.04C5298.71 1907.46 6109.61 1027.37 6498.83 1202.32" stroke="#808080" stroke-opacity="0.2" stroke-width="5" stroke-miterlimit="10"/>
</svg>
