<svg width="366" height="366" viewBox="0 0 366 366" fill="none" xmlns="http://www.w3.org/2000/svg">
<g clip-path="url(#clip0_714_51)">
<path d="M0 130.133C0 84.5824 0 61.8069 8.8648 44.4088C16.6625 29.1049 29.1049 16.6625 44.4088 8.8648C61.8069 0 84.5824 0 130.133 0H235.867C281.418 0 304.193 0 321.591 8.8648C336.895 16.6625 349.337 29.1049 357.135 44.4088C366 61.8069 366 84.5824 366 130.133V235.867C366 281.418 366 304.193 357.135 321.591C349.337 336.895 336.895 349.337 321.591 357.135C304.193 366 281.418 366 235.867 366H130.133C84.5824 366 61.8069 366 44.4088 357.135C29.1049 349.337 16.6625 336.895 8.8648 321.591C0 304.193 0 281.418 0 235.867V130.133Z" fill="url(#paint0_linear_714_51)"/>
<path d="M68 117.629C68 106.788 76.788 98 87.6286 98H277.371C288.212 98 297 106.788 297 117.629V248.486C297 259.326 288.212 268.114 277.371 268.114H87.6286C76.788 268.114 68 259.326 68 248.486V117.629Z" fill="white"/>
<path fill-rule="evenodd" clip-rule="evenodd" d="M93.2401 127.074C97.6596 121.742 105.565 121.001 110.898 125.421L182.473 184.74L253.525 125.448C258.843 121.011 266.751 121.724 271.188 127.042C275.626 132.359 274.912 140.267 269.595 144.705L182.528 217.361L94.8934 144.732C89.5608 140.312 88.8206 132.407 93.2401 127.074Z" fill="#1A6BE7"/>
</g>
<defs>
<linearGradient id="paint0_linear_714_51" x1="183" y1="0" x2="183" y2="366" gradientUnits="userSpaceOnUse">
<stop stop-color="#1A6BE7"/>
<stop offset="1" stop-color="#20C0F4"/>
</linearGradient>
<clipPath id="clip0_714_51">
<rect width="366" height="366" fill="white"/>
</clipPath>
</defs>
</svg>
