<svg width="366" height="366" viewBox="0 0 366 366" fill="none" xmlns="http://www.w3.org/2000/svg">
<g clip-path="url(#clip0_714_20)">
<path d="M0 130.133C0 84.5824 0 61.8069 8.8648 44.4088C16.6625 29.1049 29.1049 16.6625 44.4088 8.8648C61.8069 0 84.5824 0 130.133 0H235.867C281.418 0 304.193 0 321.591 8.8648C336.895 16.6625 349.337 29.1049 357.135 44.4088C366 61.8069 366 84.5824 366 130.133V235.867C366 281.418 366 304.193 357.135 321.591C349.337 336.895 336.895 349.337 321.591 357.135C304.193 366 281.418 366 235.867 366H130.133C84.5824 366 61.8069 366 44.4088 357.135C29.1049 349.337 16.6625 336.895 8.8648 321.591C0 304.193 0 281.418 0 235.867V130.133Z" fill="url(#paint0_linear_714_20)"/>
<path d="M304 175.971C304 231.24 249.946 276.043 183.267 276.043C173.168 276.043 163.358 275.016 153.982 273.079C151.15 272.494 148.197 272.417 145.64 273.769C137.266 278.197 123.485 289.409 105.54 290.203C104.73 290.239 104.277 289.308 104.775 288.668C115.381 275.058 122.292 262.479 117.736 260.033C84.5161 242.205 62.5344 211.216 62.5344 175.971C62.5344 120.703 116.588 75.8994 183.267 75.8994C249.946 75.8994 304 120.703 304 175.971Z" fill="white"/>
<circle cx="122.335" cy="174.08" r="21.4211" fill="#08BD2B"/>
<circle cx="181.244" cy="174.08" r="21.4211" fill="#08BD2B"/>
<circle cx="240.152" cy="174.08" r="21.4211" fill="#08BD2B"/>
</g>
<defs>
<linearGradient id="paint0_linear_714_20" x1="183" y1="0" x2="183" y2="366" gradientUnits="userSpaceOnUse">
<stop stop-color="#5AF575"/>
<stop offset="1" stop-color="#08BD2B"/>
</linearGradient>
<clipPath id="clip0_714_20">
<rect width="366" height="366" fill="white"/>
</clipPath>
</defs>
</svg>
