<svg width="366" height="366" viewBox="0 0 366 366" fill="none" xmlns="http://www.w3.org/2000/svg">
<g clip-path="url(#clip0_717_12)">
<path d="M0 130.133C0 84.5824 0 61.8069 8.8648 44.4088C16.6625 29.1049 29.1049 16.6625 44.4088 8.8648C61.8069 0 84.5824 0 130.133 0H235.867C281.418 0 304.193 0 321.591 8.8648C336.895 16.6625 349.338 29.1049 357.135 44.4088C366 61.8069 366 84.5824 366 130.133V235.867C366 281.418 366 304.193 357.135 321.591C349.338 336.895 336.895 349.338 321.591 357.135C304.193 366 281.418 366 235.867 366H130.133C84.5824 366 61.8069 366 44.4088 357.135C29.1049 349.338 16.6625 336.895 8.8648 321.591C0 304.193 0 281.418 0 235.867V130.133Z" fill="url(#paint0_linear_717_12)"/>
<circle cx="182.5" cy="182.5" r="89.5" fill="white"/>
<circle cx="183.5" cy="142" r="12" fill="#8B8B8B"/>
<path fill-rule="evenodd" clip-rule="evenodd" d="M162.5 179C162.5 174.858 165.858 171.5 170 171.5H195V235.5C195 239.642 191.642 243 187.5 243C183.358 243 180 239.642 180 235.5V186.5H170C165.858 186.5 162.5 183.142 162.5 179Z" fill="#828282"/>
</g>
<defs>
<linearGradient id="paint0_linear_717_12" x1="183" y1="0" x2="183" y2="366" gradientUnits="userSpaceOnUse">
<stop stop-color="#FEDD6C"/>
<stop offset="1" stop-color="#CD9F00"/>
</linearGradient>
<clipPath id="clip0_717_12">
<rect width="366" height="366" fill="white"/>
</clipPath>
</defs>
</svg>
