<svg width="366" height="366" viewBox="0 0 366 366" fill="none" xmlns="http://www.w3.org/2000/svg">
<g clip-path="url(#clip0_714_24)">
<path d="M0 130.133C0 84.5824 0 61.8069 8.8648 44.4088C16.6625 29.1049 29.1049 16.6625 44.4088 8.8648C61.8069 0 84.5824 0 130.133 0H235.867C281.418 0 304.193 0 321.591 8.8648C336.895 16.6625 349.337 29.1049 357.135 44.4088C366 61.8069 366 84.5824 366 130.133V235.867C366 281.418 366 304.193 357.135 321.591C349.337 336.895 336.895 349.337 321.591 357.135C304.193 366 281.418 366 235.867 366H130.133C84.5824 366 61.8069 366 44.4088 357.135C29.1049 349.337 16.6625 336.895 8.8648 321.591C0 304.193 0 281.418 0 235.867V130.133Z" fill="url(#paint0_linear_714_24)"/>
<path d="M76.5304 88.5125C51.3845 113.658 62.8962 165.939 102.242 205.285L163.307 266.35C202.652 305.695 254.933 317.207 280.079 292.061L289.185 282.955C294.932 277.208 292.302 265.258 283.308 256.264L254.811 227.767C245.818 218.774 233.868 216.143 228.121 221.89L209.908 240.103C204.161 245.85 192.211 243.219 183.218 234.226L134.366 185.374C125.372 176.381 122.742 164.43 128.489 158.683L146.701 140.471C152.449 134.723 149.817 122.774 140.824 113.78L112.327 85.2834C103.334 76.2899 91.3837 73.6593 85.6365 79.4065L76.5304 88.5125Z" fill="white"/>
</g>
<defs>
<linearGradient id="paint0_linear_714_24" x1="183" y1="0" x2="183" y2="366" gradientUnits="userSpaceOnUse">
<stop stop-color="#5AF575"/>
<stop offset="1" stop-color="#08BD2B"/>
</linearGradient>
<clipPath id="clip0_714_24">
<rect width="366" height="366" fill="white"/>
</clipPath>
</defs>
</svg>
