<svg width="366" height="366" viewBox="0 0 366 366" fill="none" xmlns="http://www.w3.org/2000/svg">
<g clip-path="url(#clip0_724_27)">
<path d="M0 130.133C0 84.5824 0 61.8069 8.8648 44.4088C16.6625 29.1049 29.1049 16.6625 44.4088 8.8648C61.8069 0 84.5824 0 130.133 0H235.867C281.418 0 304.193 0 321.591 8.8648C336.895 16.6625 349.338 29.1049 357.135 44.4088C366 61.8069 366 84.5824 366 130.133V235.867C366 281.418 366 304.193 357.135 321.591C349.338 336.895 336.895 349.338 321.591 357.135C304.193 366 281.418 366 235.867 366H130.133C84.5824 366 61.8069 366 44.4088 357.135C29.1049 349.338 16.6625 336.895 8.8648 321.591C0 304.193 0 281.418 0 235.867V130.133Z" fill="#363636"/>
<path d="M185.785 129H200.137V149.703H216.798V161.498H200.137V212.472C200.137 220.308 203.436 223.854 210.777 223.854C212.426 223.854 215.726 223.607 216.715 223.442V235.484C214.983 235.897 211.024 236.144 207.642 236.144C191.888 236.144 185.785 229.71 185.785 213.214V161.498H173V149.703H185.785V129Z" fill="white"/>
<path d="M302.436 149.703L270.928 235.484H256.246L224.655 149.703H239.75L263.422 220.225H263.752L287.507 149.703H302.436Z" fill="white"/>
<path d="M63 140.005C63 131.46 72.0077 126.185 79.0812 130.588L151.018 175.367C155.95 178.437 155.978 185.831 151.069 188.941L79.1525 234.507C72.0808 238.988 63 233.719 63 225.135V140.005Z" fill="white"/>
</g>
<defs>
<clipPath id="clip0_724_27">
<rect width="366" height="366" fill="white"/>
</clipPath>
</defs>
</svg>
