<svg width="366" height="366" viewBox="0 0 366 366" fill="none" xmlns="http://www.w3.org/2000/svg">
<g clip-path="url(#clip0_705_49)">
<path d="M0 130.133C0 84.5824 0 61.8069 8.8648 44.4088C16.6625 29.1049 29.1049 16.6625 44.4088 8.8648C61.8069 0 84.5824 0 130.133 0H235.867C281.418 0 304.193 0 321.591 8.8648C336.895 16.6625 349.338 29.1049 357.135 44.4088C366 61.8069 366 84.5824 366 130.133V235.867C366 281.418 366 304.193 357.135 321.591C349.338 336.895 336.895 349.338 321.591 357.135C304.193 366 281.418 366 235.867 366H130.133C84.5824 366 61.8069 366 44.4088 357.135C29.1049 349.338 16.6625 336.895 8.8648 321.591C0 304.193 0 281.418 0 235.867V130.133Z" fill="black"/>
<path d="M82 87.698H141.743L196.965 161.798L265.703 86L282.035 86.283L205.108 172.458L284 278.302H224.281L172.159 209.249L108.487 280H92.4148L164.253 199.155L82 87.698ZM136.11 98.6409H104.558L230.79 267.076H261.774L136.11 98.6409Z" fill="white"/>
</g>
<defs>
<clipPath id="clip0_705_49">
<rect width="366" height="366" fill="white"/>
</clipPath>
</defs>
</svg>
