<svg width="20" height="14" viewBox="0 0 20 14" fill="none" xmlns="http://www.w3.org/2000/svg">
<path fill-rule="evenodd" clip-rule="evenodd" d="M12 9H13C13.5523 9 14 9.44772 14 10V11C14 11.5523 13.5523 12 13 12H12C11.4477 12 11 11.5523 11 11V10C11 9.44772 11.4477 9 12 9Z" fill="#EBEBF5" fill-opacity="0.3"/>
<path fill-rule="evenodd" clip-rule="evenodd" d="M7.5 9H8.5C9.05228 9 9.5 9.44772 9.5 10V11C9.5 11.5523 9.05228 12 8.5 12H7.5C6.94772 12 6.5 11.5523 6.5 11V10C6.5 9.44772 6.94772 9 7.5 9Z" fill="#EBEBF5" fill-opacity="0.3"/>
<path fill-rule="evenodd" clip-rule="evenodd" d="M3 9H4C4.55228 9 5 9.44772 5 10V11C5 11.5523 4.55228 12 4 12H3C2.44772 12 2 11.5523 2 11V10C2 9.44772 2.44772 9 3 9Z" fill="#EBEBF5" fill-opacity="0.3"/>
<path fill-rule="evenodd" clip-rule="evenodd" d="M16.5 9H17.5C18.0523 9 18.5 9.44772 18.5 10V11C18.5 11.5523 18.0523 12 17.5 12H16.5C15.9477 12 15.5 11.5523 15.5 11V10C15.5 9.44772 15.9477 9 16.5 9Z" fill="#EBEBF5" fill-opacity="0.3"/>
</svg>
